<?xml version="1.0" encoding="UTF-8"?>
<!DOCTYPE svg PUBLIC "-//W3C//DTD SVG 1.1//EN" "http://www.w3.org/Graphics/SVG/1.1/DTD/svg11.dtd">
<!-- Creator: CorelDRAW 2018 (64-Bit) -->
<svg xmlns="http://www.w3.org/2000/svg" xml:space="preserve" width="100%" height="100%" version="1.1" style="shape-rendering:geometricPrecision; text-rendering:geometricPrecision; image-rendering:optimizeQuality; fill-rule:evenodd; clip-rule:evenodd"
viewBox="0 0 104038.4 104038.4"
 xmlns:xlink="http://www.w3.org/1999/xlink">
 <defs>
  <style>
   <![CDATA[
    .black {fill:black}
    .Skin-1 {fill:#E3694D}
    .Skin-2 {fill:#D88A69}
    .Line-C {fill:#7E29B3}
    .Spark {fill:url(#Spark-Fill)}
    .Iris {fill:url(#Iris-Fill)}
    .Eye-F {fill:url(#Eye-F-Fill)}
    .Eye-B {fill:url(#Eye-B-Fill)}
    .anim-look {animation: look 30s infinite}
    @keyframes look {
     0% {transform: translate(0px,0px);}
     9% {transform: translate(0px,0px);}
     10% {transform: translate(6000px,0px);}
     19% {transform: translate(6000px,0px);}
     20% {transform: translate(-6000px,-4000px);}
     29% {transform: translate(-6000px,-4000px);}
     30% {transform: translate(-2000px,6000px);}
     39% {transform: translate(-2000px,6000px);}
     40% {transform: translate(0px,0px);}
     49% {transform: translate(0px,0px);}
     50% {transform: translate(2000px,-4000px);}
     59% {transform: translate(2000px,-4000px);}
     60% {transform: translate(2000px,6000px);}
     69% {transform: translate(2000px,6000px);}
     70% {transform: translate(0px,0px);}
     79% {transform: translate(0px,0px);}
     80% {transform: translate(6000px,0px);}
     99% {transform: translate(-6000px,0px);}
     100% {transform: translate(0px,0px);}
    }
   ]]>
  </style>
   <clipPath id="Mask">
    <path id="Clip-Mask" d="M2486.84 71373.44c-669.8,3816.28 7793.49,1809.77 11892.63,708.22 8380.17,-2251.97 14846.9,-1006.06 28122.31,-437.65 15652.34,670.2 35172.02,-6452.84 40840.75,-20103.57 -8098.33,-9274.46 -17263.85,-13360.31 -28018.91,-15268.2 -12499.83,-2217.39 -25213.64,1873.1 -34103.94,8940.03 -8100.08,6438.79 -17595.63,17698.2 -18732.84,26161.17z"/>
   </clipPath>
  <radialGradient id="Iris-Fill" gradientUnits="userSpaceOnUse" gradientTransform="matrix(0.978711 -0 -0 1 922 0)" cx="43332.26" cy="50728.57" r="15287.71" fx="43332.26" fy="50728.57">
   <stop offset="0" style="stop-opacity:0; stop-color:#7E29B3"/>
   <stop offset="0.470588" style="stop-opacity:0; stop-color:#7E29B3"/>
   <stop offset="0" style="stop-opacity:0; stop-color:#6B2299"/>
   <stop offset="1" style="stop-opacity:1; stop-color:#591B80"/>
  </radialGradient>
  <radialGradient id="Eye-F-Fill" gradientUnits="userSpaceOnUse" gradientTransform="matrix(1 -0 -0 1 0 0)" cx="43401.05" cy="50690.11" r="19928.45" fx="43401.05" fy="50690.11">
   <stop offset="0" style="stop-opacity:1; stop-color:#030303"/>
   <stop offset="0.368627" style="stop-opacity:1; stop-color:#220236"/>
   <stop offset="0.380392" style="stop-opacity:1; stop-color:#782AA8"/>
   <stop offset="0.419608" style="stop-opacity:1; stop-color:indigo"/>
   <stop offset="0.611765" style="stop-opacity:1; stop-color:#7D29B2"/>
   <stop offset="0.870588" style="stop-opacity:1; stop-color:#511E70"/>
   <stop offset="0.94902" style="stop-opacity:1; stop-color:#2D0A44"/>
   <stop offset="1" style="stop-opacity:1; stop-color:#200333"/>
  </radialGradient>
  <radialGradient id="Eye-B-Fill" gradientUnits="userSpaceOnUse" gradientTransform="matrix(1.21923 -0.165288 0.0260198 0.74782 -11414 22903)" cx="44767.13" cy="61477.91" r="32667.89" fx="44767.13" fy="61477.91">
   <stop offset="0" style="stop-opacity:1; stop-color:white"/>
   <stop offset="0.65098" style="stop-opacity:1; stop-color:#A2A2A2"/>
   <stop offset="1" style="stop-opacity:1; stop-color:#454545"/>
  </radialGradient>
  <radialGradient id="Spark-Fill" gradientUnits="userSpaceOnUse" gradientTransform="matrix(0.125827 -1.50992 1.50992 0.125827 -24917 118103)" cx="51426.4" cy="46275.53" r="1990.72" fx="51426.4" fy="46275.53">
   <stop offset="0" style="stop-opacity:1; stop-color:#B597C5"/>
   <stop offset="0.160784" style="stop-opacity:1; stop-color:#B699C6"/>
   <stop offset="1" style="stop-opacity:0.768627; stop-color:#B79AC7"/>
  </radialGradient>
  <animate xlink:href="#Eye-F-Fill" attributeName="fx" begin="0s" dur="30s" values="43401.05; 43401.05; 44401.05; 44401.05; 42401.05; 42401.05; 42901.05; 42901.05; 43401.05; 43401.05; 43901.05; 43901.05; 43901.05; 43901.05; 43401.05; 43401.05; 44401.05; 42401.05; 43401.05" keyTimes="0; 0.09; 0.1; 0.19; 0.2; 0.29; 0.3; 0.39; 0.4; 0.49; 0.5; 0.59; 0.6; 0.69; 0.7; 0.79; 0.8; 0.99; 1" keySplines="0 1 1 1; 0 1 1 1; 0 1 1 1; 0 1 1 1; 0 1 1 1; 0 1 1 1; 0 1 1 1; 0 1 1 1; 0 1 1 1; 0 1 1 1; 0 1 1 1; 0 1 1 1; 0 1 1 1; 0 1 1 1; 0 1 1 1; 0 1 1 1; 0 1 1 1; 0 1 1 1" repeatCount="indefinite" />
  <animate xlink:href="#Line-M" attributeName="d" begin="0s" dur="7s" keyTimes="0; 0.01; 0.03; 1" keySplines="1 0 1 1; 1 0 1 1; 1 0 1 1" repeatCount="indefinite" values="
   M511.44 71522.03c-745.18,4374.12 5879.83,4487.89 13885.06,2195.5 11341.28,-3247.69 20584.18,-1036.93 35453.22,-1922.38 27479.72,-1636.43 34389.03,-16214.54 35307.16,-18994.21 5826.65,2440.95 18676.17,895.55 18150.13,-18044.49 -1888.5,12304.24 -7811.98,18200.01 -17177.05,15432.43l-4021.06 -3964.83c11855.97,1564.89 16518.65,-9155.15 15213.78,-21277.04 -1469.98,9347.25 -3800.36,20771.33 -18205.99,18607.04l-3627.12 -2363.88c12206.71,265.21 15169.9,-11211.09 13725.54,-21035.69 -1093.94,11708.2 -4798.74,19500.09 -16810.85,19103.37l-4670.36 -2085.37c10292.36,-1457.92 13841.44,-9655.46 12259.42,-19877.78 -184.87,9360.87 -4464.07,17416.3 -16160.5,18232.53l-5095.87 -1252.76c8057.59,-4026.01 10135.17,-10752.95 9434.18,-18609.96 -1672.43,8600.06 -3730.55,14440.92 -13116.9,17937.93l-5027.84 -191.93c5293.75,-6359.98 6004.86,-12465.32 4619.66,-18656.78 -108.44,7984.41 -1878.36,13239.28 -8276.61,18612.83l-5083.34 536.03c1071.58,-3260.04 2707.85,-6895.53 454.84,-17218.81 146.07,7423.67 -971.65,14031.12 -3122.59,17709.6l-5233.16 1499.61c-1205.58,-4491.91 -987.06,-6076.26 -2073.97,-14365.79 -918.06,8898.21 -365.58,11610.31 1.72,15165.93l-5786.31 2967.7c-1394.33,-2706.38 -2290.46,-5351.89 -2013.37,-10999.85 -2200.97,5999.28 -714.49,8549.57 228.96,12094.38l-5102.91 3968.36c-2052.59,-1407.97 -2267.91,-5590.05 -2594.83,-6436.35 -272.57,834.3 -518.05,5592.98 1092.63,7843.34 -6694.01,6193.41 -15024.08,15990.35 -16625.67,25391.32zm1975.4 -148.59c-541.88,3762.83 8547.67,1646.51 11892.63,708.22 11764.39,-3299.99 24129.06,663.54 35466.93,-712.8 20778.34,-2522.32 30400.27,-12292.94 33496.13,-19828.42 -5316.29,-6390.72 -16039.45,-13103.63 -28018.91,-15268.2 -12193.77,-1480.47 -24415.82,1189.54 -34103.94,8940.03 -7527.23,6021.79 -17487.14,17511 -18732.84,26161.17z;
   M1527.84 72731.33c-4362.61,-809.71 4863.43,3278.58 12868.66,986.2 11341.27,-3247.69 20584.18,-1036.93 35453.22,-1922.38 27479.72,-1636.43 34389.03,-16214.54 35307.16,-18994.21 5826.65,2440.95 18676.17,895.55 18150.13,-18044.49 -1888.5,12304.24 -7811.98,18200.01 -17177.05,15432.43l-5504.31 6088.88c5690.04,8646.9 16179.36,5547.63 20612.87,6875.11 -7856.23,2516.17 -16167.21,2592.27 -22241.47,-4836.79l-4433.19 4079.29c5966.97,9600.73 12858.97,8137.03 20848.33,9733.81 -4892.3,797.23 -16132.82,3161.81 -22871.96,-8432.18l-4728.2 2730.12c2600.34,8001.83 8792.15,10326.76 16837.99,13107.91 -7225.05,114.38 -15995.17,-3044.18 -19655.37,-12097.29l-5790.13 1981.44c4001.24,10664.98 7157.24,11639.06 12564.95,15248.67 -5900.54,-1987.66 -9979.87,-2924.8 -15133.93,-14525.81l-5389.46 918.21c1544.59,8694.34 5852.99,14669.8 9538.33,16718.47 -5717.51,-2171.86 -8479.15,-4542.48 -12419.67,-16621.52l-5343.78 472.12c1068.3,9164.67 1184.03,13432.5 3482.5,16809.46 -4068.42,-3198.63 -4412.75,-9055.01 -6033.11,-16817.23l-5224.51 -157.17c1124.04,6967.54 -2825.56,11632.71 -4357.95,14303.66 -333.82,-2366.46 4612.67,-6636.82 1906.72,-14679.08l-6430.33 -388.38c405.26,9381.25 -4197.4,11276.03 -6450.18,12261.32 3013.92,-3588.12 5123.34,-5036 4355.02,-12377.33l-5219.85 333.82c267.68,8575.07 -6100.34,10226.53 -6469.9,9486.67 170.12,1721.75 5031.94,-2723.46 4698.76,-9149.44 -6385.79,1015.25 -10397.74,2469.15 -15750.29,1475.71zm1329.41 -193.72c-3484.09,-67.41 7915.39,228 11310.55,-667.62 11705.92,-3087.95 18400.86,739.73 33773.6,-501.13 20627.05,-1664.99 33319.13,-12201.58 35348.21,-19881.33 -1823.8,5621.36 -7943.18,13037.19 -22938.92,17540.1 -10506.5,3808.21 -24431.58,2604.46 -34897.68,1584.65 -8312.84,-321.23 -10203.58,2165.09 -22595.76,1925.33z;
   M511.44 71522.03c-745.18,4374.12 5879.83,4487.89 13885.06,2195.5 11341.28,-3247.69 20584.18,-1036.93 35453.22,-1922.38 27479.72,-1636.43 34389.03,-16214.54 35307.16,-18994.21 5826.65,2440.95 18676.17,895.55 18150.13,-18044.49 -1888.5,12304.24 -7811.98,18200.01 -17177.05,15432.43l-4021.06 -3964.83c11855.97,1564.89 16518.65,-9155.15 15213.78,-21277.04 -1469.98,9347.25 -3800.36,20771.33 -18205.99,18607.04l-3627.12 -2363.88c12206.71,265.21 15169.9,-11211.09 13725.54,-21035.69 -1093.94,11708.2 -4798.74,19500.09 -16810.85,19103.37l-4670.36 -2085.37c10292.36,-1457.92 13841.44,-9655.46 12259.42,-19877.78 -184.87,9360.87 -4464.07,17416.3 -16160.5,18232.53l-5095.87 -1252.76c8057.59,-4026.01 10135.17,-10752.95 9434.18,-18609.96 -1672.43,8600.06 -3730.55,14440.92 -13116.9,17937.93l-5027.84 -191.93c5293.75,-6359.98 6004.86,-12465.32 4619.66,-18656.78 -108.44,7984.41 -1878.36,13239.28 -8276.61,18612.83l-5083.34 536.03c1071.58,-3260.04 2707.85,-6895.53 454.84,-17218.81 146.07,7423.67 -971.65,14031.12 -3122.59,17709.6l-5233.16 1499.61c-1205.58,-4491.91 -987.06,-6076.26 -2073.97,-14365.79 -918.06,8898.21 -365.58,11610.31 1.72,15165.93l-5786.31 2967.7c-1394.33,-2706.38 -2290.46,-5351.89 -2013.37,-10999.85 -2200.97,5999.28 -714.49,8549.57 228.96,12094.38l-5102.91 3968.36c-2052.59,-1407.97 -2267.91,-5590.05 -2594.83,-6436.35 -272.57,834.3 -518.05,5592.98 1092.63,7843.34 -6694.01,6193.41 -15024.08,15990.35 -16625.67,25391.32zm1975.4 -148.59c-541.88,3762.83 8547.67,1646.51 11892.63,708.22 11764.39,-3299.99 24129.06,663.54 35466.93,-712.8 20778.34,-2522.32 30400.27,-12292.94 33496.13,-19828.42 -5316.29,-6390.72 -16039.45,-13103.63 -28018.91,-15268.2 -12193.77,-1480.47 -24415.82,1189.54 -34103.94,8940.03 -7527.23,6021.79 -17487.14,17511 -18732.84,26161.17z;
   M511.44 71522.03c-745.18,4374.12 5879.83,4487.89 13885.06,2195.5 11341.28,-3247.69 20584.18,-1036.93 35453.22,-1922.38 27479.72,-1636.43 34389.03,-16214.54 35307.16,-18994.21 5826.65,2440.95 18676.17,895.55 18150.13,-18044.49 -1888.5,12304.24 -7811.98,18200.01 -17177.05,15432.43l-4021.06 -3964.83c11855.97,1564.89 16518.65,-9155.15 15213.78,-21277.04 -1469.98,9347.25 -3800.36,20771.33 -18205.99,18607.04l-3627.12 -2363.88c12206.71,265.21 15169.9,-11211.09 13725.54,-21035.69 -1093.94,11708.2 -4798.74,19500.09 -16810.85,19103.37l-4670.36 -2085.37c10292.36,-1457.92 13841.44,-9655.46 12259.42,-19877.78 -184.87,9360.87 -4464.07,17416.3 -16160.5,18232.53l-5095.87 -1252.76c8057.59,-4026.01 10135.17,-10752.95 9434.18,-18609.96 -1672.43,8600.06 -3730.55,14440.92 -13116.9,17937.93l-5027.84 -191.93c5293.75,-6359.98 6004.86,-12465.32 4619.66,-18656.78 -108.44,7984.41 -1878.36,13239.28 -8276.61,18612.83l-5083.34 536.03c1071.58,-3260.04 2707.85,-6895.53 454.84,-17218.81 146.07,7423.67 -971.65,14031.12 -3122.59,17709.6l-5233.16 1499.61c-1205.58,-4491.91 -987.06,-6076.26 -2073.97,-14365.79 -918.06,8898.21 -365.58,11610.31 1.72,15165.93l-5786.31 2967.7c-1394.33,-2706.38 -2290.46,-5351.89 -2013.37,-10999.85 -2200.97,5999.28 -714.49,8549.57 228.96,12094.38l-5102.91 3968.36c-2052.59,-1407.97 -2267.91,-5590.05 -2594.83,-6436.35 -272.57,834.3 -518.05,5592.98 1092.63,7843.34 -6694.01,6193.41 -15024.08,15990.35 -16625.67,25391.32zm1975.4 -148.59c-541.88,3762.83 8547.67,1646.51 11892.63,708.22 11764.39,-3299.99 24129.06,663.54 35466.93,-712.8 20778.34,-2522.32 30400.27,-12292.94 33496.13,-19828.42 -5316.29,-6390.72 -16039.45,-13103.63 -28018.91,-15268.2 -12193.77,-1480.47 -24415.82,1189.54 -34103.94,8940.03 -7527.23,6021.79 -17487.14,17511 -18732.84,26161.17z" />
  <animate xlink:href="#Clip-Mask" attributeName="d" begin="0s" dur="7s" keyTimes="0; 0.01; 0.03; 1" keySplines="1 0 1 1; 1 0 1 1; 1 0 1 1" repeatCount="indefinite" values="
   M2486.84 71373.44c-669.8,3816.28 7793.49,1809.77 11892.63,708.22 8380.17,-2251.97 14846.9,-1006.06 28122.31,-437.65 15652.34,670.2 35172.02,-6452.84 40840.75,-20103.57 -8098.33,-9274.46 -17263.85,-13360.31 -28018.91,-15268.2 -12499.83,-2217.39 -25213.64,1873.1 -34103.94,8940.03 -8100.08,6438.79 -17595.63,17698.2 -18732.84,26161.17z;
   M2486.84 71373.44c-669.8,3816.28 7793.49,1809.77 11892.63,708.22 8380.17,-2251.97 14846.9,-1006.06 28122.31,-437.65 15652.34,670.2 35172.02,-6452.84 40840.75,-20103.57 -4959.18,9317.66 -13693.58,15451.63 -26854.74,18492.63 -11298.7,2610.66 -19357.53,1136.17 -31669.77,579.22 -10336.83,-467.59 -21299.81,5844.84 -22331.18,761.15z;
   M2486.84 71373.44c-669.8,3816.28 7793.49,1809.77 11892.63,708.22 8380.17,-2251.97 14846.9,-1006.06 28122.31,-437.65 15652.34,670.2 35172.02,-6452.84 40840.75,-20103.57 -8098.33,-9274.46 -17263.85,-13360.31 -28018.91,-15268.2 -12499.83,-2217.39 -25213.64,1873.1 -34103.94,8940.03 -8100.08,6438.79 -17595.63,17698.2 -18732.84,26161.17z;
   M2486.84 71373.44c-669.8,3816.28 7793.49,1809.77 11892.63,708.22 8380.17,-2251.97 14846.9,-1006.06 28122.31,-437.65 15652.34,670.2 35172.02,-6452.84 40840.75,-20103.57 -8098.33,-9274.46 -17263.85,-13360.31 -28018.91,-15268.2 -12499.83,-2217.39 -25213.64,1873.1 -34103.94,8940.03 -8100.08,6438.79 -17595.63,17698.2 -18732.84,26161.17z" />
 </defs>
 <g id="Eye">
  <metadata id="CorelCorpID_0Corel-Layer"/>
  <g style="clip-path:url(#Mask)">
   <path id="Eye-B" class="Eye-B" d="M43917.13 31042.28c21997.27,-2982.09 40210.18,5537.96 40679.64,19030.12 469.46,13492.15 -16982.31,26847.17 -38979.62,29829.3 -21997.32,2982.12 -40210.21,-5537.94 -40679.64,-19030.11 -469.48,-13492.13 16982.3,-26847.17 38979.62,-29829.31z"/>
   <circle id="Eye-F" class="Eye-F anim-look" cx="43401.05" cy="50690.11" r="19596.04"/>
   <path id="Iris" class="Iris anim-look" d="M28869.23 45394.71c-43.3,210.63 6978.02,2503.93 6211.79,3131.32 -766.23,627.39 -4821.25,-591.85 -4890.69,-268.97 425.1,446.91 3804.95,913.32 3687.43,1751.06 -117.51,837.74 -6116.06,554.55 -6109.42,781.01 -36.95,214.97 7382.06,12.84 7372.32,1145.25 -9.73,1132.4 -7089.47,1684.41 -6876.92,1992.35 126.65,262.88 6788.13,-1147.87 7082.38,-247.84 294.25,900.03 -5761.23,2676.92 -5541.11,3000.05 260.99,122.62 5856.71,-2443.26 6197.34,-1669.58 340.63,773.67 -4744.81,3959.16 -4270.76,3871.4 663.34,-154.75 4141.13,-2656.65 4705.39,-2053.11 564.26,603.55 -3895.37,5010.62 -3659.54,5300.76 198.69,365.06 4680.02,-5250.03 5619,-4667.82 938.99,582.2 -2767.16,5088.82 -2261.23,5273.32 -46.77,710.38 2557.1,-4908.05 3619.46,-4467.55 1062.36,440.51 -2222.72,7092.58 -1694.02,7033.38 521.34,-73.96 2240.96,-5948.66 3303.82,-5868.53 1062.85,80.13 -315.31,5373.38 275.25,5834.79 139.91,26.63 205.61,-374.62 251.93,-977.67 127.42,-1658.97 108.26,-4845.17 1084.22,-4852.4 1330.74,-9.89 1345,8181.98 1911.46,7096.09 230.11,62.01 -817.26,-7072.12 21.19,-7002.17 838.45,69.94 2411.89,6313.53 2565.96,5240.75 66.48,-810.02 -1505.1,-4757.87 -706.38,-5198.65 798.73,-440.77 3161.03,3958.3 3348.51,3877.55 187.48,-80.74 -2856.1,-4712.14 -2052.43,-5207.23 803.66,-495.09 4458.76,3980.23 5079.96,4106.32 928.02,220.73 -4240.42,-3790.48 -3298.71,-4785.32 941.71,-994.85 5746.66,3315.1 5727.91,2938.91 290.21,-301.77 -5493.87,-3829.99 -4812.43,-4753.57 681.44,-923.58 5365.39,2445.86 4710.68,1449.14 -414.25,-484.02 -3932.56,-1832.05 -3679.29,-2853.65 253.27,-1021.6 5581.18,571.78 5920.55,325.74 98.52,-339.91 -5979.79,-904.54 -5887.14,-2206.97 92.65,-1302.43 6119.37,-722.23 7070.62,-765.49 -575.4,-585.09 -6470.03,-124.87 -6345.46,-1191.22 124.57,-1066.34 3981.93,-583.91 4270.61,-1092.92 -79.45,-183.13 -4770.21,584.41 -5011.48,-425.99 -241.26,-1010.39 6508.96,-2140.94 6478.82,-2626.85 286.46,-561.01 -5898.27,2134.55 -6149.02,1276.66 -250.76,-857.89 5467.24,-3531.24 5048.82,-4022.85 -166.48,-338.57 -5790.1,3752.56 -6411.18,2612.98 -621.09,-1139.57 4352.11,-3971.16 4008.7,-4072.94 -128.26,-505.29 -4713,3385.07 -5366.52,2684.82 -653.52,-700.25 4975.89,-5497.31 4660.25,-5774.55 -345.73,-256.54 -4897.68,5165.03 -5663.27,4569.89 -765.58,-595.14 3707.39,-5748.71 3406.44,-6056.08 -356.56,-286.87 -4161.7,5828.71 -4922.12,5430.04 -760.42,-398.66 1625,-5185.68 1344.17,-5319.96 -406.51,-101.34 -1788.7,5030.68 -2806.29,4806.86 -1017.58,-223.81 1087.31,-7067.94 604.52,-6678.39 -563.89,439.25 -1175.09,6091.12 -2184.57,5963.7 -1009.48,-127.42 -554.28,-6983.01 -842.92,-6954.5 -340.77,26.45 32.93,7271.64 -920.3,7405.52 -953.22,133.88 -1236.91,-4885.02 -1887.02,-5478.95 -254.61,260.36 1004.37,5076.81 -4.62,5356.47 -1008.99,279.67 -3083.06,-6117.01 -3463.2,-5961.96 60.23,185.86 2991.07,6753.13 2105.28,7296.94 -885.79,543.81 -2827.32,-3882.03 -4086.89,-4544.67 2337.16,3990.05 3375.62,4732.7 2698.63,5398.14 -677,665.44 -5549.11,-4556.96 -5781.15,-4297.26 -152.56,137.41 4838.95,4192.05 4283.42,5143.21 -555.53,951.16 -5381.47,-2707.93 -5329.29,-2390.96 -181.33,441.57 5542.32,3372.75 5203.68,4237.63 -338.65,864.87 -6950.18,-1917.26 -6965.14,-1595.48z"/>
   <circle id="Spark" class="Spark" cx="50024.54" cy="47543.89" r="3337.75"/>
   <path id="Skin-2" class="Skin-2" d="M8789.06 57757.22c-1278.74,1778.16 -2520.61,3579.08 -3846.52,5908.48 -94.05,2805.75 1314.84,6911.95 6183.83,9627.16 1776.58,-380.34 3962.63,-1001.38 6067.63,-1452.76 -5906.01,-2259.24 -9037.71,-8146 -8404.94,-14082.88z"/>
   <path id="Skin-1" class="Skin-1" d="M5354.62 63024.32c-1665.73,2839.1 -2808.65,5862.81 -3272.15,8662.31 -517.77,3127.3 5683.19,2382.51 9884.41,1386.09 -3347.48,-1687.19 -6787.63,-5878.57 -6612.26,-10048.4z"/>
  </g>
  <path id="Line-M" class="black" d="M511.44 71522.03c-745.18,4374.12 5879.83,4487.89 13885.06,2195.5 11341.28,-3247.69 20584.18,-1036.93 35453.22,-1922.38 27479.72,-1636.43 34389.03,-16214.54 35307.16,-18994.21 5826.65,2440.95 18676.17,895.55 18150.13,-18044.49 -1888.5,12304.24 -7811.98,18200.01 -17177.05,15432.43l-4021.06 -3964.83c11855.97,1564.89 16518.65,-9155.15 15213.78,-21277.04 -1469.98,9347.25 -3800.36,20771.33 -18205.99,18607.04l-3627.12 -2363.88c12206.71,265.21 15169.9,-11211.09 13725.54,-21035.69 -1093.94,11708.2 -4798.74,19500.09 -16810.85,19103.37l-4670.36 -2085.37c10292.36,-1457.92 13841.44,-9655.46 12259.42,-19877.78 -184.87,9360.87 -4464.07,17416.3 -16160.5,18232.53l-5095.87 -1252.76c8057.59,-4026.01 10135.17,-10752.95 9434.18,-18609.96 -1672.43,8600.06 -3730.55,14440.92 -13116.9,17937.93l-5027.84 -191.93c5293.75,-6359.98 6004.86,-12465.32 4619.66,-18656.78 -108.44,7984.41 -1878.36,13239.28 -8276.61,18612.83l-5083.34 536.03c1071.58,-3260.04 2707.85,-6895.53 454.84,-17218.81 146.07,7423.67 -971.65,14031.12 -3122.59,17709.6l-5233.16 1499.61c-1205.58,-4491.91 -987.06,-6076.26 -2073.97,-14365.79 -918.06,8898.21 -365.58,11610.31 1.72,15165.93l-5786.31 2967.7c-1394.33,-2706.38 -2290.46,-5351.89 -2013.37,-10999.85 -2200.97,5999.28 -714.49,8549.57 228.96,12094.38l-5102.91 3968.36c-2052.59,-1407.97 -2267.91,-5590.05 -2594.83,-6436.35 -272.57,834.3 -518.05,5592.98 1092.63,7843.34 -6694.01,6193.41 -15024.08,15990.35 -16625.67,25391.32zm1975.4 -148.59c-541.88,3762.83 8547.67,1646.51 11892.63,708.22 11764.39,-3299.99 24129.06,663.54 35466.93,-712.8 20778.34,-2522.32 30400.27,-12292.94 33496.13,-19828.42 -5316.29,-6390.72 -16039.45,-13103.63 -28018.91,-15268.2 -12193.77,-1480.47 -24415.82,1189.54 -34103.94,8940.03 -7527.23,6021.79 -17487.14,17511 -18732.84,26161.17z"/>
  <g id="Line-B">
   <path id="Line-B10" class="black" d="M30254.01 74113.51c-1359.94,1036.08 -3079.87,975.91 -1977.96,5439.34 -124.95,-5045.03 1422.84,-3226.4 1977.96,-5439.34z"/>
   <path id="Line-B9" class="black" d="M36839.96 73832.2c-1494.18,2697.38 -2956.63,4549.19 -1359.84,7911.74 -913.03,-4208.16 1385.31,-5010.38 1359.84,-7911.74z"/>
   <path id="Line-B8" class="black" d="M42684.21 74292.62c-336.44,2954.4 625.66,4989.28 741.68,8282.6 631.06,-3359.36 113.53,-4581.65 -741.68,-8282.6z"/>
   <path id="Line-B7" class="black" d="M48775.69 74134.93c2844.82,3445.31 3666.62,7588.91 4326.68,9024.33 -986.78,-5450.13 -2678.16,-8712.75 -4326.68,-9024.33z"/>
   <path id="Line-B6" class="black" d="M55732.49 73482.76c3754.35,1613.37 4822,3099.5 6675.48,7046.38 -526.16,-3917.29 -3757.14,-7436.03 -6675.48,-7046.38z"/>
   <path id="Line-B5" class="black" d="M61632.22 72404.25c3554.96,-164.96 4417.91,944.59 8900.63,6551.89 -3262.8,-6131.34 -4649.51,-7539.08 -8900.63,-6551.89z"/>
   <path id="Line-B4" class="black" d="M68589.02 70268.62c1386,-451.23 4605.61,-2022.3 11373.06,3832.25 -3266.9,-4666.39 -8609.28,-6515.02 -11373.06,-3832.25z"/>
   <path id="Line-B3" class="black" d="M74804.12 66649.56c5551.15,-762.66 6331.05,-2024.27 13721.86,1730.71 -5621.55,-4032.97 -10262.09,-4447.64 -13721.86,-1730.71z"/>
   <path id="Line-B2" class="black" d="M81513.68 61423.43c4359.45,-454.89 4526.14,-1122.81 11249.46,4079.48 -4155.05,-5940.42 -8179.3,-5769.84 -11249.46,-4079.48z"/>
   <path id="Line-B1" class="black" d="M84761.88 58546.08c3429.01,-743.75 7269.31,-976.37 11743.95,3955.86 -3733.58,-6973.92 -11155,-5600.67 -11743.95,-3955.86z"/>
  </g>
  <path id="Line-U" class="black" d="M452.68 53848.52c26051.41,-50349.8 76750.72,-38642.72 96918.51,-8653.44 -28906.26,-33598.6 -71933.85,-34800.14 -96918.51,8653.44z"/>
 </g>
</svg>